<?xml version="1.0" encoding="UTF-8" standalone="no"?>
<!-- Created with Inkscape (http://www.inkscape.org/) -->

<svg
   width="64mm"
   height="64mm"
   viewBox="0 0 64 64"
   version="1.1"
   id="svg5"
   inkscape:version="1.1 (c68e22c387, 2021-05-23)"
   sodipodi:docname="favicon.svg"
   xmlns:inkscape="http://www.inkscape.org/namespaces/inkscape"
   xmlns:sodipodi="http://sodipodi.sourceforge.net/DTD/sodipodi-0.dtd"
   xmlns="http://www.w3.org/2000/svg"
   xmlns:svg="http://www.w3.org/2000/svg">
  <sodipodi:namedview
     id="namedview7"
     pagecolor="#ffffff"
     bordercolor="#666666"
     borderopacity="1.0"
     inkscape:pageshadow="2"
     inkscape:pageopacity="0.0"
     inkscape:pagecheckerboard="0"
     inkscape:document-units="mm"
     showgrid="false"
     fit-margin-top="0"
     fit-margin-left="0"
     fit-margin-right="0"
     fit-margin-bottom="0"
     inkscape:zoom="0.77682379"
     inkscape:cx="308.30673"
     inkscape:cy="313.4559"
     inkscape:window-width="1858"
     inkscape:window-height="1057"
     inkscape:window-x="54"
     inkscape:window-y="-8"
     inkscape:window-maximized="1"
     inkscape:current-layer="svg5" />
  <defs
     id="defs2" />
  <rect
     style="fill:#e6e6e6;stroke-width:1.965;stroke-linecap:round"
     id="rect950"
     width="54.83601"
     height="51.770641"
     x="4.581995"
     y="6.1146793"
     rx="7.7859468" />
  <g
     id="g886"
     transform="matrix(0.26458333,0,0,0.26458333,13.146585,13.146586)">
    <g
       id="g830">
	<g
   id="g828">
		<path
   d="m 34.367,142.514 c 11.645,0 17.827,-10.4 19.645,-16.544 0.029,-0.097 0.056,-0.196 0.081,-0.297 4.236,-17.545 10.984,-45.353 15.983,-65.58 h 17.886 c 3.363,0 6.09,-2.726 6.09,-6.09 0,-3.364 -2.727,-6.09 -6.09,-6.09 H 73.103 c 1.6,-6.373 2.771,-10.912 3.232,-12.461 l 0.512,-1.734 c 1.888,-6.443 6.309,-21.535 13.146,-21.535 6.34,0 7.285,9.764 7.328,10.236 0.27,3.343 3.186,5.868 6.537,5.579 3.354,-0.256 5.864,-3.187 5.605,-6.539 C 108.894,14.036 104.087,0 89.991,0 74.03,0 68.038,20.458 65.159,30.292 l -0.49,1.659 c -0.585,1.946 -2.12,7.942 -4.122,15.962 H 39.239 c -3.364,0 -6.09,2.726 -6.09,6.09 0,3.364 2.726,6.09 6.09,6.09 H 57.53 c -6.253,25.362 -14.334,58.815 -15.223,62.498 -0.332,0.965 -2.829,7.742 -7.937,7.742 -7.8,0 -11.177,-10.948 -11.204,-11.03 -0.936,-3.229 -4.305,-5.098 -7.544,-4.156 -3.23,0.937 -5.092,4.314 -4.156,7.545 2.131,7.361 9.35,19.822 22.901,19.822 z"
   id="path824" />

		<path
   d="m 124.685,126.809 c 3.589,0 6.605,-2.549 6.605,-6.607 0,-1.885 -0.754,-3.586 -2.359,-5.474 l -12.646,-14.534 12.271,-14.346 c 1.132,-1.416 1.98,-2.926 1.98,-4.908 0,-3.59 -2.927,-6.231 -6.703,-6.231 -2.547,0 -4.527,1.604 -6.229,3.684 L 108.073,90.847 98.73,78.391 c -1.89,-2.357 -3.869,-3.682 -6.7,-3.682 -3.59,0 -6.607,2.551 -6.607,6.609 0,1.885 0.756,3.586 2.357,5.471 l 11.799,13.592 -12.932,15.289 c -1.227,1.416 -1.98,2.926 -1.98,4.908 0,3.589 2.926,6.229 6.699,6.229 2.549,0 4.53,-1.604 6.229,-3.682 l 10.19,-13.4 10.193,13.4 c 1.894,2.363 3.876,3.684 6.707,3.684 z"
   id="path826" />

	</g>

</g>
    <g
       id="g832">
</g>
    <g
       id="g834">
</g>
    <g
       id="g836">
</g>
    <g
       id="g838">
</g>
    <g
       id="g840">
</g>
    <g
       id="g842">
</g>
    <g
       id="g844">
</g>
    <g
       id="g846">
</g>
    <g
       id="g848">
</g>
    <g
       id="g850">
</g>
    <g
       id="g852">
</g>
    <g
       id="g854">
</g>
    <g
       id="g856">
</g>
    <g
       id="g858">
</g>
    <g
       id="g860">
</g>
  </g>
</svg>
